<svg width="165" height="78" viewBox="0 0 165 78" fill="none" xmlns="http://www.w3.org/2000/svg">
<mask id="mask0_572_54" style="mask-type:luminance" maskUnits="userSpaceOnUse" x="0" y="0" width="78" height="78">
<path d="M77.5 0H0V77.5H77.5V0Z" fill="white"/>
</mask>
<g mask="url(#mask0_572_54)">
<path d="M77.5 38.7501C77.4998 49.0271 73.4171 58.8832 66.1501 66.1502C58.8831 73.4172 49.0271 77.4998 38.75 77.5001C38.22 77.5001 37.7 77.4901 37.17 77.4701C34.3393 77.3545 31.5296 76.932 28.79 76.2101C29.32 75.9401 29.84 75.6701 30.36 75.3801C30.37 75.3801 30.38 75.3701 30.4 75.3601L30.41 75.3501C30.96 75.0501 31.5 74.7501 32.03 74.4401C32.16 74.3601 32.29 74.2901 32.42 74.2201C32.92 73.9201 33.42 73.6201 33.91 73.3001C34.0549 73.2216 34.1951 73.1348 34.33 73.0401C34.71 72.8101 35.09 72.5601 35.46 72.3101C35.72 72.1401 35.99 71.9601 36.24 71.7901C36.62 71.5301 36.99 71.2701 37.36 71.0001C37.61 70.8301 37.84 70.6601 38.08 70.4701C38.4 70.2501 38.71 70.0101 39.02 69.7701C39.3 69.5701 39.57 69.3601 39.84 69.1401C40.22 68.8501 40.59 68.5501 40.96 68.2301C41.12 68.1101 41.28 67.9801 41.44 67.8401C41.84 67.5101 42.23 67.1701 42.62 66.8201C42.83 66.6401 43.04 66.4601 43.25 66.2601C43.48 66.0601 43.7 65.8601 43.92 65.6501C44.34 65.2701 44.75 64.8701 45.16 64.4701C45.2149 64.4252 45.2652 64.375 45.31 64.3201C45.71 63.9401 46.1 63.5401 46.48 63.1401C46.75 62.8801 47 62.6101 47.24 62.3401C47.53 62.0501 47.8 61.7501 48.07 61.4501C48.23 61.2801 48.38 61.1101 48.52 60.9401C48.88 60.5401 49.23 60.1301 49.58 59.7201C49.76 59.5101 49.94 59.2901 50.11 59.0701C50.37 58.7701 50.62 58.4701 50.85 58.1601C51.09 57.8701 51.32 57.5701 51.54 57.2701C51.75 57.0101 51.95 56.7401 52.14 56.4801C52.4 56.1401 52.65 55.8001 52.89 55.4501C53.13 55.1001 53.39 54.7501 53.63 54.3901C53.7491 54.2331 53.8593 54.0695 53.96 53.9001C54.3 53.4001 54.63 52.8901 54.95 52.3801C55.36 51.7501 55.75 51.1101 56.12 50.4601C56.29 50.1801 56.45 49.9001 56.61 49.6201C57.9068 47.333 59.0624 44.9685 60.07 42.5401C60.22 42.2001 60.36 41.8601 60.49 41.5101C60.65 41.1401 60.79 40.7601 60.93 40.3801C61.05 40.0701 61.17 39.7501 61.28 39.4301C61.41 39.0801 61.53 38.7201 61.65 38.3701C62.09 37.0901 62.49 35.8001 62.84 34.4901C62.93 34.1601 63.02 33.8401 63.1 33.5101C63.16 33.3001 63.21 33.1001 63.26 32.8901L63.5 31.8701C63.82 30.4801 64.09 29.0801 64.32 27.6601L64.47 26.7001C64.49 26.5501 64.51 26.4101 64.53 26.2601C64.59 25.8801 64.64 25.5001 64.68 25.1201C64.75 24.5501 64.82 23.9801 64.87 23.4101C64.89 23.2601 64.9 23.1101 64.91 22.9601C64.95 22.5701 64.98 22.1701 65.01 21.7801C65.04 21.3901 65.06 20.9801 65.08 20.5801C65.1 20.3001 65.11 20.0201 65.12 19.7301C65.16 18.8101 65.18 17.8901 65.18 16.9701C65.18 16.5001 65.18 16.0401 65.16 15.5801C65.16 15.3401 65.16 15.1101 65.15 14.8701C65.12 14.0401 65.08 13.2201 65.02 12.4001V12.3701C65.01 12.1701 65 11.9701 64.98 11.7701C64.94 11.2201 64.89 10.6801 64.84 10.1301C64.8403 10.1129 64.8369 10.0958 64.83 10.0801C66.1773 11.3072 67.4371 12.6271 68.6 14.0301L68.63 14.0601C68.6355 14.0655 68.639 14.0725 68.64 14.0801C74.3806 21.0182 77.5148 29.745 77.5 38.7501Z" fill="#EA003D"/>
<path d="M65.1797 16.97C65.1851 28.9316 61.9566 40.6722 55.8358 50.9491C49.7151 61.2261 40.9298 69.6571 30.4098 75.35C30.3968 75.3652 30.3792 75.3758 30.3597 75.38L30.3498 75.39C29.8298 75.67 29.3098 75.94 28.7898 76.21C25.5263 75.3499 22.392 74.0585 19.4698 72.37C17.3558 71.1524 15.3604 69.7395 13.5098 68.15C13.8598 67.78 14.1998 67.41 14.5398 67.03L14.5497 67.02C14.5497 67.01 14.5598 67 14.5698 66.99H14.5797C25.5224 54.8282 31.5654 39.0401 31.5398 22.68C31.5414 15.6326 30.4276 8.62927 28.2397 1.93003H28.2298C28.2298 1.91003 28.2198 1.89003 28.2198 1.87003H28.2097C28.204 1.85394 28.2006 1.83708 28.1998 1.82001C27.9998 1.21001 27.7898 0.600037 27.5698 3.70953e-05H38.7498C48.3966 -0.0133225 57.6995 3.58227 64.8297 10.08C64.9097 10.84 64.9697 11.6 65.0197 12.37C65.1297 13.89 65.1797 15.42 65.1797 16.97Z" fill="#EA003D"/>
<path d="M31.54 22.68C31.54 23.35 31.53 24.02 31.51 24.68C31.5 25.11 31.48 25.53 31.46 25.96C31.38 27.68 31.23 29.39 31.01 31.09C30.96 31.53 30.9 31.96 30.83 32.39C30.76 32.92 30.67 33.44 30.58 33.97C30.5 34.47 30.41 34.96 30.31 35.46C30.29 35.58 30.26 35.7 30.24 35.82C30.16 36.23 30.07 36.65 29.98 37.06C29.5103 39.1912 28.9329 41.2972 28.25 43.37C28.12 43.78 27.98 44.18 27.84 44.57C27.8278 44.6181 27.8111 44.665 27.79 44.71C27.65 45.12 27.51 45.51 27.36 45.91C27.32 46.03 27.27 46.16 27.22 46.29C27.06 46.72 26.89 47.14 26.72 47.56C26.53 48.04 26.33 48.52 26.12 48.99C25.91 49.48 25.69 49.97 25.47 50.46C25.26 50.91 25.04 51.36 24.83 51.8C24.6 52.27 24.37 52.73 24.13 53.18C23.89 53.63 23.65 54.09 23.4 54.54C23.15 54.99 22.9 55.44 22.65 55.88C22.4 56.32 22.13 56.77 21.86 57.21C21.59 57.65 21.32 58.08 21.04 58.51C20.49 59.37 19.92 60.22 19.33 61.05C18.74 61.88 18.12 62.7 17.5 63.51C16.56 64.7 15.5867 65.86 14.58 66.99H14.57C14.56 67 14.56 67 14.56 67.01C14.56 67.0126 14.559 67.0152 14.5571 67.0171C14.5552 67.0189 14.5527 67.02 14.55 67.02C14.21 67.4 13.86 67.78 13.51 68.15C11.9344 66.796 10.4697 65.3179 9.13003 63.73C9.11987 63.711 9.1063 63.6941 9.09003 63.68C3.20913 56.7053 -0.0112784 47.8731 2.96791e-05 38.75V0H27.57C27.79 0.6 28 1.2 28.19 1.81L28.2 1.81998C28.2009 1.83704 28.2043 1.85391 28.21 1.87H28.22V1.89999C28.2194 1.90542 28.2199 1.91092 28.2216 1.91611C28.2234 1.92129 28.2263 1.92604 28.23 1.92999H28.24C28.2489 1.96813 28.2623 2.00505 28.28 2.03998L28.4 2.42999C28.74 3.48999 29.05 4.55999 29.33 5.64999C29.53 6.37999 29.71 7.12997 29.88 7.87997C30.19 9.23997 30.46 10.63 30.69 12.04C30.74 12.38 30.8 12.71 30.84 13.05C30.96 13.88 31.07 14.71 31.16 15.55C31.2 15.86 31.23 16.18 31.25 16.49C31.31 17.07 31.35 17.66 31.39 18.24C31.49 19.71 31.54 21.19 31.54 22.68Z" fill="#EA003D"/>
<g style="mix-blend-mode:multiply" opacity="0.25">
<path d="M14.5698 66.99H14.5798C14.5698 67.01 14.5598 67.01 14.5498 67.02C14.5498 67.01 14.5598 67 14.5698 66.99Z" fill="black"/>
</g>
<g style="mix-blend-mode:multiply" opacity="0.25">
<path d="M28.2163 1.87009C28.2214 1.89058 28.2281 1.91064 28.2363 1.93008H28.2263C28.2163 1.91008 28.2163 1.89009 28.2063 1.87009C28.2005 1.854 28.1972 1.83713 28.1963 1.82007C28.204 1.8363 28.2107 1.85301 28.2163 1.87009Z" fill="black"/>
</g>
<g style="mix-blend-mode:multiply" opacity="0.25">
<path d="M77.5 38.7501C77.4997 49.0271 73.4171 58.8832 66.1501 66.1502C58.8831 73.4172 49.0271 77.4998 38.75 77.5001C38.75 77.5001 39.09 77.4701 39.73 77.4101C40.38 77.3701 41.31 77.2301 42.49 77.0701C43.67 76.8801 45.09 76.6001 46.69 76.2001C48.4661 75.7156 50.2123 75.1279 51.92 74.4401C53.9216 73.6072 55.8543 72.6174 57.7 71.4801C59.7376 70.2047 61.6614 68.756 63.45 67.1501C65.3509 65.4299 67.0821 63.5312 68.62 61.4801C70.216 59.3762 71.5806 57.1064 72.69 54.7101C73.8235 52.3216 74.7049 49.8214 75.32 47.2501C75.9144 44.7596 76.2693 42.2181 76.38 39.6601C76.4769 37.2547 76.3632 34.8456 76.04 32.4601C75.7415 30.3155 75.2699 28.1986 74.63 26.1301C74.0821 24.3691 73.4207 22.6455 72.65 20.9701C71.94 19.4801 71.26 18.2001 70.65 17.1801C70.04 16.1601 69.53 15.3601 69.16 14.8401C68.88 14.4401 68.71 14.1901 68.64 14.0801C74.3806 21.0182 77.5147 29.745 77.5 38.7501Z" fill="black"/>
</g>
</g>
<g clip-path="url(#clip0_572_54)">
<path d="M157.137 38.0408L164.999 59C162.681 58.6663 160.365 58.2489 158.005 57.874L153.577 46.2915L149.025 56.9167C146.791 56.5418 144.596 56.4156 142.362 56.1244L150.349 37.7909L143.106 19H149.812L153.867 29.499L158.213 19H164.999L157.137 38.0408ZM137.81 19H131.726V55.3333C133.712 55.4583 135.782 55.5408 137.81 55.7907V19ZM126.469 54.9159C120.925 54.541 115.379 54.2085 109.71 54.0823V19H115.916V48.1661C119.476 48.2499 123.035 48.541 126.469 48.7073V54.9159ZM103.087 33.2081V39.458H94.6045V53.6662H88.4788V19H105.86V25.2499H94.6045V33.2081H103.087ZM78.0495 25.2499V53.9998C75.9803 53.9998 73.8701 53.9998 71.8419 54.0823V25.2499H65.4269V19H84.5054V25.2499H78.0495ZM58.7228 39.7905C55.9919 39.7905 52.7634 39.7905 50.4459 39.9167V49.2084C54.0878 48.9572 57.7297 48.666 61.4126 48.541V54.541L44.2382 55.9169V19H61.4126V25.2499H50.4459V33.6655C52.8465 33.6655 56.5294 33.5406 58.7228 33.5406V39.7905ZM24.3318 36.2912V58.1239C22.0975 58.3751 20.1102 58.6663 18 59V19H23.9184L31.988 41.7088V19H38.1957V56.4156C36.0023 56.7917 33.768 56.9167 31.4083 57.2491L24.3318 36.2912Z" fill="white"/>
</g>
<defs>
<clipPath id="clip0_572_54">
<rect width="147" height="40" fill="white" transform="translate(18 19)"/>
</clipPath>
</defs>
</svg>
